<?xml version="1.0" standalone="no"?>
<!DOCTYPE svg PUBLIC "-//W3C//DTD SVG 20010904//EN"
 "http://www.w3.org/TR/2001/REC-SVG-20010904/DTD/svg10.dtd">
<svg version="1.0" xmlns="http://www.w3.org/2000/svg"
 width="256.000000pt" height="256.000000pt" viewBox="0 0 256.000000 256.000000"
 preserveAspectRatio="xMidYMid meet">
<metadata>
Created by potrace 1.11, written by Peter Selinger 2001-2013
</metadata>
<g transform="translate(0.000000,256.000000) scale(0.100000,-0.100000)"
fill="#000000" stroke="none">
<path d="M0 1280 l0 -1280 1280 0 1280 0 0 1280 0 1280 -1280 0 -1280 0 0
-1280z m1450 227 l0 -823 -117 -20 c-90 -14 -168 -19 -323 -19 -184 0 -213 2
-285 23 -217 63 -337 187 -379 394 -60 293 60 568 296 677 113 52 181 64 332
59 l126 -4 0 268 0 268 175 0 175 0 0 -823z m565 638 l0 -180 -175 0 -175 0
-3 170 c-1 93 0 175 3 182 3 11 42 13 177 11 l173 -3 0 -180z m3 -790 c3 -443
-8 -686 -34 -794 -42 -169 -135 -290 -289 -376 l-51 -28 -64 31 c-36 16 -110
51 -165 77 l-99 46 49 27 c131 72 191 129 236 227 51 109 59 203 59 738 l0
477 178 -2 177 -3 3 -420z"/>
<path d="M865 1505 c-61 -23 -111 -69 -142 -133 -24 -49 -28 -69 -28 -147 0
-112 14 -160 65 -217 61 -70 160 -99 284 -84 l56 7 0 284 c0 214 -3 286 -12
291 -25 15 -181 14 -223 -1z"/>
</g>
</svg>
